<svg xmlns="http://www.w3.org/2000/svg" viewBox="0 0 120 120"><defs><clipPath id="c"><rect width="120" height="120" rx="27"/></clipPath></defs><g clip-path="url(#c)"><rect width="120" height="120" fill="#D8CFF2"/><g transform="translate(8.4 10) scale(.86)"><path d="M16 114 C16 98 36 94 60 94 C84 94 104 98 104 114Z" fill="#E9B98A"/><polygon points="26,54 32,18 56,38" fill="#F2C9A0" stroke="#F2C9A0" stroke-width="6" stroke-linejoin="round"/><polygon points="94,54 88,18 64,38" fill="#F2C9A0" stroke="#F2C9A0" stroke-width="6" stroke-linejoin="round"/><polygon points="33,44 35,27 47,37" fill="#F5A3B2" stroke="#F5A3B2" stroke-width="3" stroke-linejoin="round"/><polygon points="87,44 85,27 73,37" fill="#F5A3B2" stroke="#F5A3B2" stroke-width="3" stroke-linejoin="round"/><ellipse cx="60" cy="72" rx="43" ry="33" fill="#F2C9A0"/><path d="M20 72 C18 36 102 36 100 72" fill="none" stroke="#8B7BD8" stroke-width="7" stroke-linecap="round"/><path d="M54 48 L54 55 M60 46 L60 55 M66 48 L66 55" stroke="#D9A273" stroke-width="3" stroke-linecap="round"/><ellipse cx="60" cy="83" rx="19" ry="12" fill="#FFF3E6"/><ellipse cx="18" cy="72" rx="9" ry="14" fill="#8B7BD8"/><ellipse cx="102" cy="72" rx="9" ry="14" fill="#8B7BD8"/><path d="M45 68 L45 68.1 M75 68 L75 68.1" stroke="#4A3F4B" stroke-width="8.5" stroke-linecap="round"/><path d="M56.5 76.5 Q60 74 63.5 76.5 Q60 81 56.5 76.5Z" fill="#E68A98" stroke="#E68A98" stroke-width="1.5" stroke-linejoin="round"/><path d="M60 80 L60 83 M54 84 Q57 88 60 83 Q63 88 66 84" fill="none" stroke="#4A3F4B" stroke-width="2.6" stroke-linecap="round" stroke-linejoin="round"/><ellipse cx="35" cy="81" rx="6" ry="4" fill="#F2A3AE" fill-opacity=".5"/><ellipse cx="85" cy="81" rx="6" ry="4" fill="#F2A3AE" fill-opacity=".5"/></g></g></svg>
